<?xml version="1.0" encoding="UTF-8" standalone="no"?>
<!DOCTYPE svg PUBLIC "-//W3C//DTD SVG 1.1//EN" "http://www.w3.org/Graphics/SVG/1.1/DTD/svg11.dtd">
<svg width="100%" height="100%" viewBox="0 0 1425 1365" version="1.1" xmlns="http://www.w3.org/2000/svg" xmlns:xlink="http://www.w3.org/1999/xlink" xml:space="preserve" xmlns:serif="http://www.serif.com/" style="fill-rule:evenodd;clip-rule:evenodd;stroke-linecap:round;stroke-linejoin:round;stroke-miterlimit:1.5;">
    <g>
        <path d="M313.921,561.724C200.22,459.32 220.969,171.237 315.584,129.498C370.425,105.306 492.143,207.02 553.236,332.581C599.583,317.706 651.149,302.536 699.219,302.536C745.229,302.536 796.793,319.163 837.832,331.601C899.576,207.993 1014.43,105.558 1068.7,129.498C1161.96,170.638 1183.46,451.105 1075.18,557.204C1089.31,603.966 1141.63,700.245 1134.13,755.38L1110.32,755.529C1116.38,771.344 1119.57,787.744 1119.57,804.555C1119.57,845.782 1100.03,886.283 1062.92,921.987L330.623,921.987C293.515,886.283 273.979,845.782 273.979,804.555C273.979,789.581 276.507,774.932 281.339,760.734L258.751,760.876C256.421,666.143 312.079,598.88 313.382,569.692C313.501,567.026 313.681,564.37 313.921,561.724Z"/>
        <clipPath id="_clip1">
            <path d="M313.921,561.724C200.22,459.32 220.969,171.237 315.584,129.498C370.425,105.306 492.143,207.02 553.236,332.581C599.583,317.706 651.149,302.536 699.219,302.536C745.229,302.536 796.793,319.163 837.832,331.601C899.576,207.993 1014.43,105.558 1068.7,129.498C1161.96,170.638 1183.46,451.105 1075.18,557.204C1089.31,603.966 1141.63,700.245 1134.13,755.38L1110.32,755.529C1116.38,771.344 1119.57,787.744 1119.57,804.555C1119.57,845.782 1100.03,886.283 1062.92,921.987L330.623,921.987C293.515,886.283 273.979,845.782 273.979,804.555C273.979,789.581 276.507,774.932 281.339,760.734L258.751,760.876C256.421,666.143 312.079,598.88 313.382,569.692C313.501,567.026 313.681,564.37 313.921,561.724Z"/>
        </clipPath>
        <g clip-path="url(#_clip1)">
            <g transform="matrix(1,0,0,1,73.7518,-53.8341)">
                <path d="M1310.9,295.271C1310.9,155.792 1197.67,42.553 1058.19,42.553L342.561,42.553C203.082,42.553 89.843,155.792 89.843,295.271L89.843,800.708C89.843,940.187 203.082,1053.43 342.561,1053.43L1058.19,1053.43C1197.67,1053.43 1310.9,940.187 1310.9,800.708L1310.9,295.271Z" style="fill:white;"/>
            </g>
            <g transform="matrix(0.959699,0,0,0.960289,30.2157,31.2208)">
                <path d="M696.302,395.882C699.947,389.072 704.28,382.768 709.386,377.105C856.449,214.024 925.352,57.725 1063.27,68.837C1210.31,80.684 1287.66,280.802 1274.85,463.344C1268.12,559.327 1214.3,685.198 1151.39,743.916C1018.11,705.573 921.22,816.676 880.525,769.581C874.288,740.784 728.103,610.773 712.5,625.576C708.894,625.233 694.035,587.381 685.564,539.679C666.705,592.072 641.345,636.097 637.776,636.437C627.976,627.542 511.294,741.779 507.274,769.581C466.579,816.676 369.693,705.573 236.409,743.916C173.504,685.198 119.681,559.327 112.947,463.344C100.139,280.802 171.121,48.443 318.675,43.161C452.644,38.366 540.673,229.636 678.413,377.105C684.618,383.749 691.969,388.336 696.302,395.882Z" style="fill:rgb(246,186,142);stroke:rgb(246,186,142);stroke-width:18.17px;"/>
            </g>
            <g transform="matrix(1.06288,-5.89958e-18,2.2871e-18,-0.430725,-44.3483,622.411)">
                <path d="M417.413,126.298C514.124,473.309 646.633,405.523 693.066,299.717C817.958,514.718 929.713,326.266 975.998,138.131C987.258,92.362 1021.67,-86.294 1086.1,-65.898C1093.15,-63.665 1104.74,-62.719 1111.33,-60.112C1122,-55.894 1132.95,-50.136 1141.88,-42.844C1196.22,1.52 1220.29,69.732 1239.76,134.65C1271.54,240.646 1284.51,353.367 1274.23,463.678C1271.07,497.547 1268.25,516.134 1260.66,549.302C1258.49,558.802 1255.04,567.98 1252.93,577.494C1248.81,596.089 1243.47,631.566 1241.12,650.447C1227.29,761.454 1214.42,872.58 1200.3,983.55C1188.74,1074.33 1177.52,1148.5 1160.65,1238.45C1153.51,1276.5 1144.7,1314.73 1128.36,1350.04C1118.09,1372.21 1088.79,1359.41 1074.67,1349.27C1069.11,1345.27 1063.8,1340.89 1058.84,1336.16C1047.46,1325.33 1036.6,1313.97 1025.71,1302.63C1014.19,1290.63 1003.15,1278.16 991.624,1266.16C986.104,1260.41 980.376,1254.86 974.591,1249.37C955.916,1231.66 927.782,1204.64 899.47,1218.81C895.568,1220.76 891.95,1223.3 888.591,1226.09C886.065,1228.18 883.778,1230.62 881.939,1233.34C877.379,1240.08 872.903,1246.95 869.478,1254.32C860.798,1361 706.877,534.375 698.406,486.673C679.547,539.067 545.541,1166.24 555.9,1074.88C263.008,2646.79 137.678,773.884 194.842,735.454C140.929,685.129 127.956,607.737 119.738,538.097C115.809,504.809 111.294,464.306 111.06,429.318C110.422,334.23 132.928,237.782 166.721,149.343C171.519,136.785 177.254,124.594 183.114,112.495C188.67,101.024 194.544,89.692 200.951,78.674C207.022,68.235 213.414,57.952 220.513,48.184C249.926,7.717 293.516,-22.789 348.31,-33.042C372.353,-37.542 397.159,53.627 417.413,126.298Z" style="fill:rgb(224,150,72);stroke:rgb(224,150,72);stroke-width:21.51px;"/>
            </g>
            <g transform="matrix(1.55231,-0.682315,0.402393,0.915467,-414.273,276.723)">
                <path d="M423.22,236.244C396.398,236.244 358.994,367.051 358.57,437.203C357.783,567.36 339.349,571.004 410.963,507.509C420.447,499.1 429.246,452.895 444.376,466.45C460.075,480.514 438.593,443.586 449.743,435.987C458.154,430.256 477.09,461.89 477.09,438.167C477.09,368.015 450.042,236.244 423.22,236.244Z" style="fill:rgb(246,188,200);"/>
            </g>
            <g transform="matrix(-1.50043,-0.721413,-0.442956,0.921282,1799.67,285.362)">
                <path d="M423.22,236.244C396.398,236.244 358.994,367.051 358.57,437.203C357.783,567.36 339.349,571.004 410.963,507.509C420.447,499.1 429.246,452.895 444.376,466.45C460.075,480.514 438.593,443.586 449.743,435.987C458.154,430.256 477.09,461.89 477.09,438.167C477.09,368.015 450.042,236.244 423.22,236.244Z" style="fill:rgb(246,188,200);"/>
            </g>
            <path d="M460.03,391.491C459.645,390.95 459.267,390.407 458.908,389.861C455.856,385.222 454.055,380.292 455,374.609C456.987,362.663 465.241,358.59 475.636,357.122C479.241,356.613 483.133,356.473 486.599,355.755C488.331,355.396 490.098,355.031 490.4,352.835C490.468,352.339 490.459,351.819 490.34,351.332C489.649,348.503 488.87,345.653 487.58,343.042C484.626,337.063 480.946,331.469 477.501,325.759C472.709,317.815 468.059,309.772 462.853,302.092C457.899,294.783 452.69,287.627 447.071,280.815C433.652,264.547 425.001,256.846 408.824,243.381C400.838,236.733 388.583,226.199 376.699,220.796C364.88,215.423 351.498,212.749 337.785,210.993C332.858,210.363 329.37,205.85 330.001,200.923C330.632,195.996 335.144,192.508 340.071,193.139C355.618,195.13 370.75,198.318 384.149,204.41C397.484,210.473 411.379,222.087 420.34,229.547C437.532,243.857 446.695,252.072 460.957,269.361C466.935,276.608 472.482,284.217 477.753,291.993C483.136,299.935 487.958,308.245 492.914,316.46C496.619,322.602 500.541,328.639 503.718,335.069C505.589,338.857 506.823,342.955 507.826,347.059C508.477,349.726 508.606,352.566 508.232,355.286C506.496,367.922 498.275,372.186 487.954,373.794C484.265,374.369 480.26,374.518 476.671,375.184C474.968,375.501 473.093,375.54 472.756,377.562C472.636,378.287 473.214,378.797 473.58,379.395C474.495,380.887 475.619,382.325 476.653,383.808C479.608,388.047 481.812,392.603 481.817,397.834C481.82,400.789 480.661,403.408 478.248,405.453C476.042,407.322 470.683,408.418 469.93,408.521C466.013,409.062 460.99,409.215 456.217,410.148C453.387,410.701 450.521,411.319 448.787,413.436C448.383,413.929 448.479,414.58 448.48,415.207C448.482,416.482 448.695,417.796 448.942,419.089C449.579,422.417 450.45,425.65 450.75,428.31C452.122,440.475 452.14,449.884 444.55,459.747C436.851,469.754 425.697,474.777 415.892,482.317C398.311,495.837 384.754,513.901 379.282,535.622C378.068,540.439 373.172,543.364 368.356,542.151C363.539,540.937 360.613,536.042 361.827,531.225C368.299,505.537 384.128,484.036 404.919,468.048C413.483,461.463 423.56,457.509 430.285,448.77C434.696,443.038 433.661,437.397 432.864,430.327C432.428,426.468 430.736,421.363 430.513,416.557C430.264,411.22 431.457,406.186 434.863,402.028C438.454,397.645 443.49,394.897 449.161,393.325C452.677,392.35 456.461,391.864 460.03,391.491Z"/>
            <path d="M895.951,353.531C896.802,353.561 897.786,353.571 898.599,353.516C901.92,353.291 905.705,352.737 909.603,352.269C917.829,351.28 926.457,350.823 933.316,352.851C939.549,354.695 944.613,358.319 947.815,364.478C952.645,373.769 948.732,381.873 940.99,388.774C939.878,389.764 938.692,390.733 937.505,391.687C937.619,391.673 937.733,391.659 937.847,391.645C945.479,390.724 952.278,392.241 956.526,397.981C960.115,402.831 960.429,407.826 958.928,413.735C957.503,419.341 952.999,426.819 960.463,439.212C965.225,447.117 973.537,464.766 979.949,471.219C989.265,480.594 998.719,487.346 1007.07,494.893C1016.5,503.422 1024.63,512.883 1030.21,527.004C1032.04,531.623 1029.77,536.857 1025.15,538.683C1020.53,540.51 1015.3,538.243 1013.47,533.624C1008.09,520.011 999.544,511.956 990.027,503.925C982.757,497.791 974.935,491.709 967.181,483.906C960.036,476.716 950.351,457.309 945.044,448.499C936.456,434.241 937.509,424.016 939.539,416.065C940.047,414.073 940.639,412.248 941.136,410.551C941.229,410.233 941.327,409.838 941.416,409.449C940.762,409.469 940.037,409.507 939.494,409.58C937.62,409.831 935.71,410.186 933.888,410.432C925.857,411.516 919.215,409.731 915.573,404.012C910.44,395.955 913.853,387.934 922.346,380.811C924.816,378.738 927.696,376.663 929.997,374.423C930.557,373.879 931.279,372.937 931.651,372.437C929.667,369.149 925.47,369.334 921.261,369.384C913.354,369.478 904.67,371.309 898.109,371.568C886.646,372.019 879.774,367.557 878.402,359.141C876.95,350.234 879.388,340.903 883.941,331.897C889.557,320.788 898.436,310.12 903.962,301.668C917.873,280.392 950.709,239.719 985.731,214.286C1011.14,195.835 1037.93,185.858 1060.09,193.349C1064.8,194.94 1067.33,200.051 1065.74,204.757C1064.15,209.463 1059.04,211.992 1054.33,210.401C1036.86,204.497 1016.33,214.31 996.308,228.851C963.191,252.901 932.182,291.399 919.027,311.519C914.603,318.285 907.894,326.499 902.662,335.228C899.06,341.238 895.949,347.437 895.951,353.531Z"/>
        </g>
        <path d="M313.921,561.724C200.22,459.32 220.969,171.237 315.584,129.498C370.425,105.306 492.143,207.02 553.236,332.581C599.583,317.706 651.149,302.536 699.219,302.536C745.229,302.536 796.793,319.163 837.832,331.601C899.576,207.993 1014.43,105.558 1068.7,129.498C1161.96,170.638 1183.46,451.105 1075.18,557.204C1089.31,603.966 1141.63,700.245 1134.13,755.38L1110.32,755.529C1116.38,771.344 1119.57,787.744 1119.57,804.555C1119.57,845.782 1100.03,886.283 1062.92,921.987L330.623,921.987C293.515,886.283 273.979,845.782 273.979,804.555C273.979,789.581 276.507,774.932 281.339,760.734L258.751,760.876C256.421,666.143 312.079,598.88 313.382,569.692C313.501,567.026 313.681,564.37 313.921,561.724Z" style="fill:none;stroke:black;stroke-width:17.44px;"/>
        <g transform="matrix(-0.999995,0.0030113,-0.00143194,-0.475519,1409.6,1028.35)">
            <path d="M712.337,531.814C712.337,531.814 633.721,621.77 633.721,659.717C633.721,719.912 670.305,764.907 712.337,767.371C747.096,769.408 791.059,722.64 791.059,662.444C791.059,624.497 712.337,531.814 712.337,531.814Z"/>
        </g>
        <g id="Layer1">
            <g transform="matrix(1,0,0,0.981198,0,15.1431)">
                <path d="M543.926,769.066C533.693,859.811 694.882,868.724 696.271,777.606" style="fill:none;stroke:black;stroke-width:16.15px;"/>
            </g>
            <g transform="matrix(1,0,0,0.981198,150.606,17.7891)">
                <path d="M543.926,769.066C533.693,859.811 694.882,868.724 696.271,777.606" style="fill:none;stroke:black;stroke-width:16.15px;"/>
            </g>
            <g transform="matrix(1.17644,0,0,0.447841,-126.72,522.631)">
                <path d="M699.099,646.493C684.004,664.734 669.251,687.89 642.969,717.335C641.844,718.665 648.54,943.767 699.099,938.531C745.224,933.753 755.506,711.803 755.506,711.803C720.092,688.681 717.813,668.393 699.099,646.493Z" style="fill:rgb(246,188,200);stroke:black;stroke-width:19.1px;"/>
            </g>
            <path d="M696.271,748.167C696.531,745.45 694.03,880.366 694.03,880.366" style="fill:none;stroke:black;stroke-width:17.4px;"/>
        </g>
        <g>
            <g transform="matrix(1,0,0,1,13.6459,-115.924)">
                <path d="M602.119,693.301C602.338,664.807 540.222,647.738 518.211,647.738C472.35,668.646 466.278,672.625 454.414,733.182C454.414,755.193 470.863,837.547 496.338,818.363C522.556,798.618 601.709,746.761 602.119,693.301Z" style="fill:rgb(252,215,189);"/>
            </g>
            <g transform="matrix(1.06869,0,0,0.860286,-35.3421,82.6576)">
                <ellipse cx="531.636" cy="621.422" rx="39.806" ry="61.078" style="stroke:black;stroke-width:18.55px;"/>
            </g>
            <g transform="matrix(0.655924,0,0,0.64515,153.155,161.758)">
                <ellipse cx="606.503" cy="629.149" rx="3.46" ry="4.08" style="fill:white;"/>
            </g>
            <g transform="matrix(0.304628,0.2064,-0.188424,0.515643,493.501,161.217)">
                <path d="M448.545,572.117C576.342,515.778 643.163,546.88 613.988,519.815C587.935,495.646 471.44,543.365 448.545,572.117Z"/>
            </g>
        </g>
        <g transform="matrix(-1,0,0,1,1390.58,0)">
            <g transform="matrix(1,0,0,1,13.6459,-115.924)">
                <path d="M602.119,693.301C602.338,664.807 540.222,647.738 518.211,647.738C472.35,668.646 466.278,672.625 454.414,733.182C454.414,755.193 470.863,837.547 496.338,818.363C522.556,798.618 601.709,746.761 602.119,693.301Z" style="fill:rgb(252,215,189);"/>
            </g>
            <g transform="matrix(1.06869,0,0,0.860286,-35.3421,82.6576)">
                <ellipse cx="531.636" cy="621.422" rx="39.806" ry="61.078" style="stroke:black;stroke-width:18.55px;"/>
            </g>
            <g transform="matrix(0.655924,0,0,0.64515,153.155,161.758)">
                <ellipse cx="606.503" cy="629.149" rx="3.46" ry="4.08" style="fill:white;"/>
            </g>
            <g transform="matrix(0.318668,0.183983,-0.150895,0.527847,450.283,160.679)">
                <path d="M448.545,572.117C576.342,515.778 643.163,546.88 613.988,519.815C587.935,495.646 471.44,543.365 448.545,572.117Z"/>
            </g>
        </g>
        <g transform="matrix(0.982805,0,0,1,-9.20794,2.43549)">
            <g transform="matrix(1.36444,0,0,1.63078,-117.063,-563.451)">
                <path d="M401.922,898.557C401.922,870.608 374.327,847.917 340.338,847.917L297.993,847.917C264.004,847.917 236.409,870.608 236.409,898.557C236.409,926.506 264.004,949.197 297.993,949.197L340.338,949.197C374.327,949.197 401.922,926.506 401.922,898.557Z" style="fill:white;stroke:black;stroke-width:11.68px;"/>
            </g>
            <g transform="matrix(1.36444,0,0,1.63078,655.873,-563.451)">
                <path d="M401.922,898.557C401.922,870.608 374.327,847.917 340.338,847.917L297.993,847.917C264.004,847.917 236.409,870.608 236.409,898.557C236.409,926.506 264.004,949.197 297.993,949.197L340.338,949.197C374.327,949.197 401.922,926.506 401.922,898.557Z" style="fill:white;stroke:black;stroke-width:11.68px;"/>
            </g>
        </g>
        <path d="M1046.7,926.576C1045.58,924.411 1046.43,921.744 1048.6,920.625C1050.76,919.506 1053.43,920.356 1054.55,922.521C1063.85,940.521 1059.23,964.119 1052.55,982.426C1051.71,984.716 1049.18,985.897 1046.89,985.062C1044.6,984.227 1043.41,981.689 1044.25,979.399C1050.14,963.248 1054.91,942.456 1046.7,926.576Z"/>
        <g transform="matrix(1.27845,-0.274628,0.222335,1.03502,-526.566,266.746)">
            <path d="M1098.37,924.955C1098.19,922.663 1099.55,920.621 1101.4,920.397C1103.26,920.173 1104.91,921.851 1105.1,924.143C1106.64,943.66 1104.47,961.606 1097.58,980.073C1096.8,982.163 1094.79,983.078 1093.09,982.113C1091.4,981.149 1090.66,978.668 1091.44,976.578C1097.81,959.533 1099.8,942.968 1098.37,924.955Z"/>
        </g>
        <path d="M269.572,921.559C269.503,919.122 271.424,917.088 273.861,917.019C276.297,916.949 278.332,918.871 278.401,921.307C278.705,931.959 277.339,942.139 277.676,951.917C277.983,960.802 279.769,969.345 286.23,977.563C287.737,979.48 287.404,982.258 285.488,983.765C283.572,985.271 280.793,984.939 279.287,983.023C271.514,973.137 269.218,962.91 268.849,952.222C268.511,942.426 269.876,932.229 269.572,921.559Z"/>
        <path d="M309.12,918.548C309.893,916.236 312.397,914.987 314.709,915.759C317.02,916.532 318.27,919.036 317.498,921.348C315.166,928.324 314.879,942.883 317.165,955.39C318.58,963.132 320.827,970.148 324.686,973.547C326.515,975.158 326.692,977.951 325.081,979.78C323.47,981.609 320.677,981.786 318.848,980.175C313.858,975.781 310.306,966.989 308.476,956.978C305.895,942.858 306.488,926.424 309.12,918.548Z"/>
    </g>
</svg>
